<?xml version="1.0" encoding="utf-8"?>
<!-- Generator: Adobe Illustrator 24.1.2, SVG Export Plug-In . SVG Version: 6.00 Build 0)  -->
<svg version="1.1" id="Layer_1" xmlns="http://www.w3.org/2000/svg" xmlns:xlink="http://www.w3.org/1999/xlink" x="0px" y="0px"
	 viewBox="0 0 765 427.39" style="enable-background:new 0 0 765 427.39;" xml:space="preserve">
<style type="text/css">
	.st0{fill:#FFFFFF;}
</style>
<g>
	<polygon class="st0" points="575,127.39 575,187.39 425,187.39 425,7.39 485,7.39 485,127.39 	"/>
	<polygon class="st0" points="765,7.39 765,67.39 660,67.39 660,97.39 750,97.39 750,157.39 660,157.39 660,187.39 600,187.39 
		600,7.39 	"/>
	<polygon class="st0" points="765,247.39 765,307.39 660,307.39 660,337.39 750,337.39 750,397.39 660,397.39 660,427.39 
		600,427.39 600,247.39 	"/>
	<polygon class="st0" points="120,247.39 180,247.39 180,427.39 120,427.39 120,367.39 60,367.39 60,427.39 0,427.39 0,247.39 
		60,247.39 60,307.39 120,307.39 	"/>
	<polygon class="st0" points="120,7.39 180,7.39 180,187.39 120,187.39 120,127.39 60,127.39 60,187.39 0,187.39 0,7.39 60,7.39 
		60,67.39 120,67.39 	"/>
	<path class="st0" d="M302.5,242.39c-49.63,0-90,40.37-90,90v95h60v-30h60v30h60v-95C392.5,282.76,352.13,242.39,302.5,242.39z
		 M332.5,337.39h-60v-5c0-16.54,13.46-30,30-30s30,13.46,30,30V337.39z"/>
	<path class="st0" d="M302.5,2.39c-49.63,0-90,40.37-90,90v95h60v-30h60v30h60v-95C392.5,42.76,352.13,2.39,302.5,2.39z
		 M332.5,97.39h-60v-5c0-16.54,13.46-30,30-30s30,13.46,30,30V97.39z"/>
	<polygon class="st0" points="575,367.39 575,427.39 425,427.39 425,247.39 485,247.39 485,367.39 	"/>
</g>
</svg>
