<svg id="Layer_3" data-name="Layer 3" xmlns="http://www.w3.org/2000/svg" viewBox="0 0 1083.68 143.96"><path d="M646,25.8h11.22l41.48,105.4L740.13,25.8h10.71L703.58,143.44H693.21Z" transform="translate(-0.18 -1.24)"/><path d="M758.83,32.6a8,8,0,1,1,8,8A7.87,7.87,0,0,1,758.83,32.6Zm12.92,110.84h-9.86V52.49h9.86Z" transform="translate(-0.18 -1.24)"/><path d="M868.14,125.76c-4.08,8-16.32,19.21-35.53,19.21-26.86,0-46.24-18.87-46.24-46.92,0-27.2,19.89-47.09,46.24-47.09,15.81,0,29.41,8,35.53,18V19.17H878V143.44h-9.86Zm-35.53,10.37c20.91,0,36-15.64,36-38.08,0-22.27-15.13-38.25-36-38.25s-36,16-36,38.25C796.57,120.49,811.7,136.13,832.61,136.13Z" transform="translate(-0.18 -1.24)"/><path d="M902.82,100.77c1.19,21.76,14.79,35.36,35.53,35.36,17.17,0,27-8.5,33.83-22.61l7.65,3.4c-6.46,16-20.57,28.05-41.48,28.05-27,0-45.73-18.87-45.73-46.92C892.62,70.51,911.15,51,937,51c26,0,43.69,16.83,44.37,44.2,0,1.19,0,3.74-.17,5.61Zm.34-8.5H971c-.85-20.91-15.13-32.47-34.34-32.47C918.46,59.8,905.2,71.7,903.16,92.27Z" transform="translate(-0.18 -1.24)"/><path d="M1037.46,51c26,0,46.41,19.38,46.41,47.09,0,27.54-20.91,46.92-46.75,46.92-26,0-46.24-18.53-46.24-46.92C990.88,69.83,1011.62,51,1037.46,51Zm-.17,85.17c20.91,0,36.38-15.64,36.38-38.08,0-22.1-15.3-38.25-36.38-38.25s-36.21,16-36.21,38.25C1001.08,120.49,1016.21,136.13,1037.29,136.13Z" transform="translate(-0.18 -1.24)"/><polygon points="84.04 7.59 84.04 88.9 33.46 7.59 0 7.59 0 142.21 31.32 142.21 31.32 62.64 83.26 142.21 115.36 142.21 115.36 7.59 84.04 7.59"/><path d="M179.65,117c-14,0-23.73-10.89-23.73-25.48s8.75-25.68,23.53-25.68c14.21,0,23.74,11.09,23.74,25.68,0,14.39-8.76,25.48-23.54,25.48m-.39-79.37c-31.9,0-54.47,23.73-54.47,54.08,0,30.15,21.2,53.5,54.66,53.5,33.08,0,54.86-23.73,54.86-54.08,0-30.16-21-53.5-55.05-53.5" transform="translate(-0.18 -1.24)"/><path d="M274.15,46.57v-7.2H242.83V143.45h31.32V81.39c0-6.42,2.14-9.73,10.5-9.73h7.78V38.79c-9.33,0-14.39,2.72-18.28,7.78" transform="translate(-0.18 -1.24)"/><path d="M544,119.91c-6.81,0-11.86-4.86-11.86-11.67,0-6.62,4.86-11.48,11.67-11.48s12.06,4.47,12.06,11.48c0,6.81-5.06,11.67-11.87,11.67m1-81.71c-25.49,0-37.74,12.65-38.33,33.66h29c0-4.09,2.14-9,9.53-9,7.78,0,10.12,5.45,10.12,11.28v4.28c-2.73-1.75-8.56-3.69-17.12-3.69-21.6,0-35.6,13.61-35.41,34.23.2,22.18,15.95,35.61,36.38,35.61,9.92,0,16.53-2.53,21.4-6.81v5.64h25.68V78.86c0-23.34-8.76-40.66-41.24-40.66" transform="translate(-0.18 -1.24)"/><rect x="595.87" width="31.32" height="142.21"/><path d="M458.53,38.2c-12.1,0-19.28,4.3-23.87,8.13h0l-2.19,1.91,0,0c-5.77-6.18-14.64-10-27.47-10-13.61,0-21,5.45-25.48,9.54-5.06-5.84-12.65-9.54-24.12-9.54-13.23,0-19.46,5.45-21.79,7.78V39.37H302.27V143.45h31.32v-65c0-7.58,4.08-12.45,11.28-12.45,7.39,0,11.28,5.06,11.28,12.65v64.78h31.32V78.67c0-6.81,3.7-12.65,11.29-12.65C406.15,66,410,71.08,410,78.67v64.78h31.32V75.26C442.42,70,446,66,452.31,66c7.39,0,11.28,5.06,11.28,12.65v64.78h31.32V75c0-20-9.53-36.77-36.38-36.77" transform="translate(-0.18 -1.24)"/></svg>